<?xml version="1.0" encoding="utf-8"?>
<!-- Generator: Adobe Illustrator 23.0.6, SVG Export Plug-In . SVG Version: 6.00 Build 0)  -->
<svg version="1.1" xmlns="http://www.w3.org/2000/svg" xmlns:xlink="http://www.w3.org/1999/xlink" x="0px" y="0px"
	 viewBox="0 0 1920 1080" style="enable-background:new 0 0 1920 1080;" xml:space="preserve">
<style type="text/css">
	.st0{fill:#5E8D41;}
	.st1{fill:none;stroke:#FF0000;stroke-width:2;stroke-miterlimit:10;}
	.st2{fill:#FFFFFF;}
</style>
<g id="Layer_1">
	<rect id="Rectangle_12_1_" y="2" class="st0" width="1920" height="1080"/>
	<path class="st1" d="M248-299c0.67-104.67,1.33-209.33,2-314"/>
	<g>
		<g>
			<path class="st2" d="M491.86,295.49h228.09v69.15H566.77v69.15h141.66v69.15H566.77v132.53h-74.91V295.49z"/>
			<path class="st2" d="M898.58,295.49h131.57c17.29,0,33.69,1.68,49.22,5.04c15.52,3.36,29.13,8.97,40.82,16.81
				c11.68,7.85,20.96,18.41,27.85,31.69c6.88,13.29,10.32,29.85,10.32,49.7c0,24.01-6.24,44.42-18.73,61.22
				c-12.48,16.81-30.73,27.45-54.74,31.93l86.43,143.58h-89.8l-71.07-135.89h-36.98v135.89h-74.91V295.49z M973.49,436.19h44.18
				c6.72,0,13.84-0.24,21.37-0.72c7.52-0.48,14.32-1.92,20.41-4.32c6.08-2.4,11.12-6.16,15.13-11.28c4-5.12,6-12.32,6-21.61
				c0-8.64-1.76-15.52-5.28-20.65c-3.53-5.12-8.01-9.04-13.45-11.76c-5.45-2.72-11.69-4.56-18.73-5.52
				c-7.04-0.96-13.93-1.44-20.65-1.44h-48.98V436.19z"/>
			<path class="st2" d="M1333.63,295.49h74.91v339.98h-74.91V295.49z"/>
		</g>
		<g>
			<g>
				<path class="st2" d="M546.9,829.6c-6.92,0-13.43-1.05-19.56-3.13c-6.12-2.09-11.42-5.15-15.88-9.18
					c-4.47-4.03-8-8.93-10.59-14.69c-2.59-5.76-3.89-12.24-3.89-19.45c0-4.75,0.76-9.15,2.27-13.18c1.51-4.03,3.57-7.67,6.16-10.91
					c2.59-3.24,5.65-5.98,9.18-8.21c3.53-2.23,7.38-3.92,11.56-5.08v-0.65c-2.88-0.72-5.76-2.02-8.64-3.89
					c-2.88-1.87-5.44-4.25-7.67-7.13c-2.24-2.88-4.07-6.37-5.51-10.48c-1.44-4.11-2.16-8.82-2.16-14.15
					c0-5.76,1.19-10.98,3.57-15.67c2.38-4.68,5.62-8.68,9.72-11.99c4.11-3.31,8.86-5.87,14.26-7.67c5.4-1.8,11.13-2.7,17.18-2.7
					c6.05,0,11.78,0.9,17.18,2.7c5.4,1.8,10.16,4.36,14.26,7.67c4.11,3.32,7.35,7.31,9.72,11.99c2.38,4.68,3.57,9.91,3.57,15.67
					c0,5.33-0.72,10.05-2.16,14.15c-1.44,4.11-3.28,7.6-5.51,10.48c-2.24,2.88-4.79,5.26-7.67,7.13c-2.88,1.87-5.76,3.17-8.64,3.89
					v0.65c4.18,1.15,8.03,2.85,11.56,5.08c3.53,2.23,6.59,4.97,9.18,8.21c2.59,3.24,4.65,6.88,6.16,10.91
					c1.51,4.04,2.27,8.43,2.27,13.18c0,7.21-1.3,13.69-3.89,19.45c-2.59,5.76-6.12,10.66-10.59,14.69
					c-4.47,4.04-9.76,7.1-15.88,9.18C560.33,828.55,553.82,829.6,546.9,829.6z M546.9,811.45c8.64,0,15.67-2.63,21.07-7.89
					c5.4-5.26,8.1-12.06,8.1-20.42c0-4.61-0.76-8.68-2.27-12.21c-1.51-3.53-3.6-6.48-6.27-8.86c-2.67-2.38-5.76-4.18-9.29-5.4
					c-3.53-1.22-7.31-1.84-11.34-1.84c-8.5,0.15-15.49,2.85-20.96,8.1c-5.48,5.26-8.21,11.99-8.21,20.21
					c0,4.47,0.79,8.46,2.38,11.99c1.58,3.53,3.71,6.48,6.37,8.86c2.66,2.38,5.76,4.21,9.29,5.51
					C539.3,810.8,543.01,811.45,546.9,811.45z M522.92,712.48c0,3.03,0.54,5.98,1.62,8.86c1.08,2.88,2.63,5.44,4.65,7.67
					c2.02,2.24,4.5,4.07,7.46,5.51c2.95,1.44,6.37,2.16,10.26,2.16c4.03,0,7.53-0.68,10.48-2.05c2.95-1.37,5.44-3.17,7.46-5.4
					c2.02-2.23,3.53-4.79,4.54-7.67c1.01-2.88,1.51-5.91,1.51-9.08c0-7.06-2.2-12.86-6.59-17.4c-4.4-4.54-10.19-6.81-17.39-6.81
					c-6.63,0-12.28,2.24-16.96,6.7C525.26,699.45,522.92,705.28,522.92,712.48z"/>
				<path class="st2" d="M671.8,828.3c-3.89,0-7.24-1.4-10.05-4.21c-2.81-2.81-4.21-6.16-4.21-10.05c0-3.89,1.4-7.24,4.21-10.05
					c2.81-2.81,6.16-4.21,10.05-4.21s7.24,1.4,10.05,4.21c2.81,2.81,4.21,6.16,4.21,10.05c0,3.89-1.4,7.24-4.21,10.05
					C679.04,826.9,675.69,828.3,671.8,828.3z"/>
				<path class="st2" d="M746.57,804.97l61.37-60.94c2.16-2.02,4.25-4.21,6.27-6.59c2.02-2.38,3.82-4.86,5.4-7.46
					c1.58-2.59,2.84-5.33,3.78-8.21c0.94-2.88,1.4-5.9,1.4-9.08c0-3.75-0.69-7.13-2.05-10.16c-1.37-3.03-3.24-5.58-5.62-7.67
					c-2.38-2.09-5.19-3.71-8.43-4.86c-3.24-1.15-6.66-1.73-10.26-1.73c-7.49,0-13.69,2.09-18.58,6.27c-4.9,4.18-8,9.94-9.29,17.29
					l-22.47-1.95c1.01-6.77,2.99-12.64,5.94-17.61c2.95-4.97,6.62-9.11,11.02-12.42c4.39-3.31,9.43-5.76,15.13-7.35
					c5.69-1.58,11.85-2.38,18.48-2.38c6.62,0,12.86,0.9,18.69,2.7c5.83,1.8,10.95,4.47,15.34,8c4.39,3.53,7.85,7.92,10.37,13.18
					c2.52,5.26,3.78,11.42,3.78,18.48c0,5.04-0.76,9.76-2.27,14.15c-1.51,4.4-3.5,8.54-5.94,12.42c-2.45,3.89-5.26,7.56-8.43,11.02
					c-3.17,3.46-6.48,6.84-9.94,10.16l-50.35,48.62h76.93v18.15H746.57V804.97z"/>
				<path class="st2" d="M949.9,697.79l-28.09,25.93l-12.1-14.48l42.57-35.22h18.37v152.99H949.9V697.79z"/>
				<path class="st2" d="M1076.53,828.3c-3.89,0-7.24-1.4-10.05-4.21c-2.81-2.81-4.21-6.16-4.21-10.05c0-3.89,1.4-7.24,4.21-10.05
					c2.81-2.81,6.16-4.21,10.05-4.21s7.24,1.4,10.05,4.21c2.81,2.81,4.21,6.16,4.21,10.05c0,3.89-1.4,7.24-4.21,10.05
					C1083.77,826.9,1080.42,828.3,1076.53,828.3z"/>
				<path class="st2" d="M1151.29,804.97l61.37-60.94c2.16-2.02,4.25-4.21,6.27-6.59c2.02-2.38,3.82-4.86,5.4-7.46
					c1.58-2.59,2.84-5.33,3.78-8.21c0.94-2.88,1.4-5.9,1.4-9.08c0-3.75-0.69-7.13-2.05-10.16c-1.37-3.03-3.24-5.58-5.62-7.67
					c-2.38-2.09-5.19-3.71-8.43-4.86c-3.24-1.15-6.66-1.73-10.26-1.73c-7.49,0-13.69,2.09-18.58,6.27c-4.9,4.18-8,9.94-9.29,17.29
					l-22.47-1.95c1.01-6.77,2.99-12.64,5.94-17.61c2.95-4.97,6.62-9.11,11.02-12.42c4.39-3.31,9.43-5.76,15.13-7.35
					c5.69-1.58,11.85-2.38,18.48-2.38c6.62,0,12.86,0.9,18.69,2.7c5.83,1.8,10.95,4.47,15.34,8c4.39,3.53,7.85,7.92,10.37,13.18
					c2.52,5.26,3.78,11.42,3.78,18.48c0,5.04-0.76,9.76-2.27,14.15c-1.51,4.4-3.5,8.54-5.94,12.42c-2.45,3.89-5.26,7.56-8.43,11.02
					c-3.17,3.46-6.48,6.84-9.94,10.16l-50.35,48.62h76.93v18.15h-100.26V804.97z"/>
				<path class="st2" d="M1303.63,750.51c0-5.62,0.29-11.45,0.86-17.5c0.57-6.05,1.62-11.99,3.13-17.83
					c1.51-5.83,3.53-11.42,6.05-16.75c2.52-5.33,5.76-9.97,9.72-13.94c3.96-3.96,8.64-7.13,14.04-9.51
					c5.4-2.38,11.7-3.57,18.91-3.57c7.2,0,13.5,1.19,18.91,3.57s10.08,5.55,14.05,9.51c3.96,3.96,7.2,8.61,9.72,13.94
					c2.52,5.33,4.54,10.91,6.05,16.75c1.51,5.83,2.56,11.78,3.13,17.83c0.57,6.05,0.86,11.88,0.86,17.5
					c0,8.07-0.72,16.71-2.16,25.93c-1.44,9.22-4.11,17.79-8,25.71c-3.89,7.92-9.26,14.48-16.1,19.66
					c-6.84,5.19-15.67,7.78-26.47,7.78c-10.8,0-19.63-2.59-26.47-7.78c-6.84-5.19-12.21-11.74-16.1-19.66
					c-3.89-7.92-6.56-16.49-8-25.71C1304.35,767.23,1303.63,758.58,1303.63,750.51z M1324.38,750.51c0,5.04,0.32,11.02,0.97,17.93
					s2.05,13.58,4.21,19.99c2.16,6.41,5.37,11.85,9.62,16.31c4.25,4.47,9.97,6.7,17.18,6.7c7.2,0,12.93-2.23,17.18-6.7
					c4.25-4.46,7.46-9.9,9.62-16.31c2.16-6.41,3.57-13.07,4.21-19.99c0.65-6.92,0.97-12.89,0.97-17.93c0-3.46-0.11-7.38-0.32-11.78
					c-0.22-4.39-0.72-8.86-1.51-13.4c-0.79-4.54-1.91-8.93-3.35-13.18c-1.44-4.25-3.35-8.07-5.73-11.45
					c-2.38-3.38-5.29-6.08-8.75-8.1c-3.46-2.02-7.56-3.03-12.32-3.03s-8.86,1.01-12.32,3.03c-3.46,2.02-6.37,4.72-8.75,8.1
					c-2.38,3.39-4.29,7.21-5.73,11.45c-1.44,4.25-2.56,8.64-3.35,13.18c-0.79,4.54-1.3,9-1.51,13.4
					C1324.49,743.13,1324.38,747.06,1324.38,750.51z"/>
			</g>
		</g>
	</g>
</g>
<g id="Group_26">
</g>
</svg>
