<?xml version="1.0" encoding="utf-8"?>
<!-- Generator: Adobe Illustrator 23.0.6, SVG Export Plug-In . SVG Version: 6.00 Build 0)  -->
<svg version="1.1" id="Layer_1" xmlns="http://www.w3.org/2000/svg" xmlns:xlink="http://www.w3.org/1999/xlink" x="0px" y="0px"
	 viewBox="0 0 472 841" style="enable-background:new 0 0 472 841;" xml:space="preserve">
<style type="text/css">
	.st0{fill:#5E8D41;}
	.st1{fill:#87CA5D;}
	.st2{fill:#72AB4F;}
	.st3{enable-background:new    ;}
	.st4{fill:#FFFFFF;}
</style>
<rect id="Rectangle_34" class="st0" width="472" height="841"/>
<rect id="Rectangle_36" x="1018" y="914" class="st1" width="472" height="841"/>
<rect id="Rectangle_35" x="512.99" y="913.32" class="st2" width="470" height="841"/>
<g id="Group_9" transform="translate(-330.747 -1196)">
	<g class="st3">
		<path class="st4" d="M593.82,1927.66v26.66H466.04v-73.24h22.2v46.58h32.95v-43.35h22.11v43.35H593.82z"/>
		<path class="st4" d="M544.79,1818.25h49.03v27.09H466.04v-37.23c0-17.36,3.16-30.21,9.48-38.54c6.32-8.33,15.92-12.5,28.8-12.5
			c7.52,0,14.2,2.07,20.06,6.21c5.86,4.14,10.45,9.99,13.77,17.57c28.73-19.23,47.29-31.76,55.68-37.58v30.07l-49.03,30.5V1818.25z
			 M522.76,1818.25v-8.74c0-8.57-1.43-14.89-4.28-18.97c-2.85-4.08-7.34-6.12-13.46-6.12c-6.06,0-10.37,2.08-12.94,6.25
			c-2.56,4.17-3.85,10.62-3.85,19.36v8.22H522.76z"/>
		<path class="st4" d="M593.82,1716.43H466.04v-27.09h127.78V1716.43z"/>
		<path class="st4" d="M528.71,1540.42c21.04,0,37.15,5.99,48.33,17.96s16.78,29.27,16.78,51.87v36.19H466.04v-40.12
			c0-20.86,5.51-37.06,16.52-48.6C493.57,1546.18,508.96,1540.42,528.71,1540.42z M529.41,1568.56c-27.44,0-41.17,12.12-41.17,36.36
			v14.42h83.21v-11.62C571.45,1581.61,557.43,1568.56,529.41,1568.56z"/>
		<path class="st4" d="M593.82,1424.97l-30.42,9.26v46.59l30.42,9.26v29.19l-128.31-45.1v-33.13l128.31-45.27V1424.97z
			 M540.68,1440.7c-27.56,8.57-43.15,13.39-46.76,14.47c-3.61,1.08-6.47,1.85-8.57,2.32c7.46,1.92,25.9,7.43,55.33,16.52V1440.7z"/>
		<path class="st4" d="M518.66,1329.19l-52.62-26.66v-29.19l78.05,42.39h49.73v26.92h-48.86l-78.92,42.39v-29.37L518.66,1329.19z"/>
	</g>
	<g class="st3">
		<path class="st4" d="M673.82,1922.58l-16.12,6.31v20.32l16.12,6.24v5.96l-50.89-20.04v-4.96l50.89-19.93V1922.58z M652.4,1930.72
			l-15.7,5.89c-1.99,0.76-4.43,1.55-7.32,2.36c2.22,0.51,4.66,1.24,7.32,2.18l15.7,5.96V1930.72z"/>
		<path class="st4" d="M623.14,1867.04h32.8c5.78,0,10.32,1.75,13.62,5.24c3.3,3.49,4.96,8.29,4.96,14.39s-1.66,10.82-4.99,14.16
			s-7.9,5.01-13.73,5.01h-32.66v-5.89h33.07c4.23,0,7.48-1.15,9.74-3.47c2.26-2.31,3.4-5.71,3.4-10.19c0-4.28-1.14-7.57-3.41-9.88
			c-2.28-2.31-5.54-3.47-9.79-3.47h-33V1867.04z"/>
		<path class="st4" d="M647.27,1827.15v-17.23h24.65c0.85,2.68,1.5,5.41,1.94,8.18c0.44,2.77,0.66,5.99,0.66,9.64
			c0,7.67-2.28,13.65-6.85,17.92s-10.96,6.41-19.19,6.41c-5.27,0-9.89-1.06-13.85-3.17c-3.96-2.11-6.99-5.16-9.08-9.13
			c-2.09-3.97-3.14-8.63-3.14-13.97c0-5.41,0.99-10.45,2.98-15.12l5.2,2.29c-1.94,4.58-2.91,8.98-2.91,13.21
			c0,6.17,1.84,10.99,5.51,14.46s8.77,5.2,15.29,5.2c6.84,0,12.03-1.67,15.57-5.01s5.3-8.25,5.3-14.72c0-3.51-0.4-6.95-1.21-10.3
			h-15.6v11.34H647.27z"/>
		<path class="st4" d="M623.14,1755.29h32.8c5.78,0,10.32,1.75,13.62,5.24c3.3,3.49,4.96,8.29,4.96,14.39s-1.66,10.82-4.99,14.16
			s-7.9,5.01-13.73,5.01h-32.66v-5.89h33.07c4.23,0,7.48-1.15,9.74-3.47c2.26-2.31,3.4-5.71,3.4-10.19c0-4.28-1.14-7.57-3.41-9.88
			c-2.28-2.31-5.54-3.47-9.79-3.47h-33V1755.29z"/>
		<path class="st4" d="M660.34,1709.08c4.46,0,7.94,1.62,10.44,4.85c2.5,3.24,3.74,7.63,3.74,13.17c0,6.01-0.77,10.63-2.32,13.87
			h-5.69c0.88-2.08,1.57-4.35,2.08-6.79c0.51-2.45,0.76-4.88,0.76-7.28c0-3.93-0.75-6.89-2.24-8.88c-1.49-1.99-3.57-2.98-6.22-2.98
			c-1.76,0-3.19,0.35-4.32,1.06s-2.16,1.88-3.1,3.54c-0.95,1.65-2.02,4.17-3.22,7.54c-1.69,4.71-3.69,8.08-6,10.11
			c-2.31,2.02-5.33,3.03-9.05,3.03c-3.91,0-7.01-1.47-9.33-4.4c-2.31-2.93-3.47-6.82-3.47-11.65c0-5.04,0.92-9.67,2.77-13.9
			l5.13,1.84c-1.76,4.18-2.63,8.25-2.63,12.2c0,3.12,0.67,5.56,2.01,7.32c1.34,1.76,3.2,2.63,5.58,2.63c1.76,0,3.2-0.32,4.32-0.97
			s2.15-1.74,3.08-3.28c0.94-1.54,1.97-3.89,3.1-7.05c1.9-5.32,3.93-8.97,6.1-10.97C654.05,1710.08,656.87,1709.08,660.34,1709.08z"
			/>
		<path class="st4" d="M673.82,1678.92v5.89h-45.45v16.05h-5.24v-38h5.24v16.05H673.82z"/>
		<path class="st4" d="M670.15,1652.76c-1.55,0-2.72-0.35-3.52-1.06c-0.8-0.7-1.2-1.72-1.2-3.03c0-1.34,0.4-2.39,1.2-3.14
			c0.8-0.75,1.97-1.13,3.52-1.13c1.5,0,2.66,0.38,3.47,1.14s1.21,1.8,1.21,3.12c0,1.18-0.36,2.16-1.09,2.93
			C673.01,1652.37,671.81,1652.76,670.15,1652.76z"/>
		<path class="st4" d="M673.82,1575.53v33.32h-4.96l-13.42-13.35c-4.11-4.07-7.05-6.75-8.81-8.04c-1.76-1.29-3.47-2.27-5.13-2.91
			c-1.66-0.65-3.46-0.97-5.37-0.97c-2.71,0-4.85,0.82-6.43,2.46c-1.58,1.64-2.38,3.92-2.38,6.83c0,2.1,0.35,4.1,1.04,5.98
			s1.95,3.98,3.78,6.29l-3.92,3.05c-3.88-4.67-5.82-9.75-5.82-15.25c0-4.76,1.22-8.49,3.66-11.2s5.71-4.06,9.83-4.06
			c3.21,0,6.39,0.9,9.53,2.71c3.14,1.8,7.12,5.18,11.93,10.12l10.85,11.09h0.28v-26.07H673.82z"/>
		<path class="st4" d="M673.82,1542.74v5.62H637.7c-3,0-5.85-0.09-8.53-0.28c0.49,0.48,0.99,1.03,1.53,1.63
			c0.53,0.6,2.79,3.35,6.76,8.25l-3.95,3.05l-10.37-13.42v-4.85H673.82z"/>
		<path class="st4" d="M665.57,1510.61l0.8-0.52c2.31,0.6,5,1.47,8.06,2.6c3.06,1.13,5.91,2.31,8.55,3.54v4.33
			c-2.4-0.62-5.37-1.31-8.91-2.06c-3.54-0.75-6.37-1.28-8.49-1.58V1510.61z"/>
		<path class="st4" d="M673.82,1441.73v33.32h-4.96l-13.42-13.35c-4.11-4.07-7.05-6.75-8.81-8.04c-1.76-1.29-3.47-2.26-5.13-2.91
			c-1.66-0.65-3.46-0.97-5.37-0.97c-2.71,0-4.85,0.82-6.43,2.46c-1.58,1.64-2.38,3.92-2.38,6.83c0,2.1,0.35,4.1,1.04,5.98
			c0.69,1.88,1.95,3.98,3.78,6.29l-3.92,3.05c-3.88-4.67-5.82-9.75-5.82-15.25c0-4.76,1.22-8.49,3.66-11.2s5.71-4.06,9.83-4.06
			c3.21,0,6.39,0.9,9.53,2.7c3.14,1.8,7.12,5.18,11.93,10.12l10.85,11.09h0.28v-26.07H673.82z"/>
		<path class="st4" d="M648.41,1396.67c8.76,0,15.3,1.38,19.62,4.14c4.32,2.76,6.48,6.99,6.48,12.67c0,5.45-2.21,9.6-6.64,12.45
			s-10.92,4.26-19.47,4.26c-8.83,0-15.38-1.38-19.66-4.13c-4.28-2.75-6.41-6.94-6.41-12.58c0-5.5,2.23-9.68,6.69-12.53
			C633.49,1398.1,639.95,1396.67,648.41,1396.67z M648.41,1424.37c7.37,0,12.74-0.87,16.1-2.6c3.36-1.73,5.04-4.5,5.04-8.29
			c0-3.84-1.71-6.62-5.11-8.34c-3.41-1.72-8.75-2.58-16.03-2.58c-7.28,0-12.61,0.86-16,2.58c-3.39,1.72-5.08,4.5-5.08,8.34
			c0,3.79,1.67,6.55,5.01,8.29C635.68,1423.5,641.04,1424.37,648.41,1424.37z"/>
		<path class="st4" d="M673.82,1352.16v33.32h-4.96l-13.42-13.35c-4.11-4.07-7.05-6.75-8.81-8.04c-1.76-1.29-3.47-2.26-5.13-2.91
			c-1.66-0.65-3.46-0.97-5.37-0.97c-2.71,0-4.85,0.82-6.43,2.46c-1.58,1.64-2.38,3.92-2.38,6.83c0,2.1,0.35,4.1,1.04,5.98
			c0.69,1.88,1.95,3.98,3.78,6.29l-3.92,3.05c-3.88-4.67-5.82-9.75-5.82-15.25c0-4.76,1.22-8.49,3.66-11.2s5.71-4.06,9.83-4.06
			c3.21,0,6.39,0.9,9.53,2.7c3.14,1.8,7.12,5.18,11.93,10.12l10.85,11.09h0.28v-26.07H673.82z"/>
		<path class="st4" d="M648.41,1307.1c8.76,0,15.3,1.38,19.62,4.14c4.32,2.76,6.48,6.99,6.48,12.67c0,5.45-2.21,9.6-6.64,12.45
			s-10.92,4.26-19.47,4.26c-8.83,0-15.38-1.38-19.66-4.13c-4.28-2.75-6.41-6.94-6.41-12.58c0-5.5,2.23-9.68,6.69-12.53
			C633.49,1308.53,639.95,1307.1,648.41,1307.1z M648.41,1334.8c7.37,0,12.74-0.87,16.1-2.6c3.36-1.73,5.04-4.5,5.04-8.29
			c0-3.84-1.71-6.62-5.11-8.34c-3.41-1.72-8.75-2.58-16.03-2.58c-7.28,0-12.61,0.86-16,2.58c-3.39,1.72-5.08,4.5-5.08,8.34
			c0,3.79,1.67,6.55,5.01,8.29C635.68,1333.93,641.04,1334.8,648.41,1334.8z"/>
	</g>
</g>
<g id="Group_36" transform="translate(-1491 -1186.641)">
	
		<text transform="matrix(4.489659e-11 -0.9692 1 4.351435e-11 2252.2568 2863.5972)" class="st4" style="font-family:'OpenSans-Bold'; font-size:125.162px; letter-spacing:7.22;">SATURDAY</text>
	
		<text transform="matrix(4.489659e-11 -0.9692 1 4.351435e-11 2310.7441 2863.5972)" class="st4" style="font-family:'OpenSans-Regular'; font-size:49.1708px; letter-spacing:17.54;">AUGUST. 22, 2020</text>
</g>
<g id="Group_49" transform="translate(-493.247 -510.5)">
	
		<text transform="matrix(4.489659e-11 -0.9781 1 4.391170e-11 1767.9882 2189.5703)" class="st4" style="font-family:'OpenSans-Bold'; font-size:156.0694px; letter-spacing:9.2;">SUNDAY</text>
	
		<text transform="matrix(4.489659e-11 -0.9781 1 4.391170e-11 1837.8085 2185.5537)" class="st4" style="font-family:'OpenSans-Regular'; font-size:61.6063px; letter-spacing:10.22;">AUGUST. 23, 2020</text>
</g>
</svg>
