<?xml version="1.0" encoding="utf-8"?>
<!-- Generator: Adobe Illustrator 23.0.6, SVG Export Plug-In . SVG Version: 6.00 Build 0)  -->
<svg version="1.1" id="Layer_1" xmlns="http://www.w3.org/2000/svg" xmlns:xlink="http://www.w3.org/1999/xlink" x="0px" y="0px"
	 viewBox="0 0 1920 1080" style="enable-background:new 0 0 1920 1080;" xml:space="preserve">
<style type="text/css">
	.st0{fill:#72AB4F;}
	.st1{fill:#FFFFFF;}
</style>
<rect id="Rectangle_12_2_" x="-0.33" y="-0.3" class="st0" width="1920" height="1080"/>
<g>
	<g>
		<path class="st1" d="M672.78,345.04c-6.05-7.64-14.25-13.28-24.58-16.95c-10.34-3.65-20.13-5.49-29.36-5.49
			c-5.42,0-10.98,0.64-16.71,1.91c-5.73,1.28-11.14,3.27-16.23,5.97c-5.09,2.71-9.23,6.29-12.41,10.74
			c-3.18,4.46-4.77,9.87-4.77,16.23c0,10.19,3.82,17.98,11.46,23.39c7.64,5.42,17.26,10.02,28.88,13.84
			c11.61,3.82,24.11,7.64,37.47,11.46c13.37,3.82,25.85,9.23,37.47,16.23c11.61,7,21.24,16.39,28.88,28.16
			c7.64,11.78,11.46,27.53,11.46,47.26c0,18.78-3.51,35.17-10.5,49.17c-7,14.01-16.47,25.62-28.4,34.85
			c-11.93,9.23-25.78,16.07-41.53,20.53c-15.75,4.45-32.38,6.68-49.88,6.68c-21.96,0-42.33-3.34-61.1-10.02
			c-18.78-6.68-36.28-17.5-52.51-32.46l52.99-58.24c7.64,10.19,17.26,18.06,28.88,23.63c11.61,5.57,23.63,8.35,36.04,8.35
			c6.04,0,12.17-0.72,18.38-2.15c6.21-1.43,11.77-3.58,16.71-6.44c4.93-2.86,8.91-6.52,11.93-10.98c3.02-4.45,4.54-9.7,4.54-15.75
			c0-10.18-3.9-18.21-11.7-24.11c-7.8-5.88-17.59-10.9-29.36-15.04c-11.78-4.13-24.51-8.27-38.19-12.41
			c-13.69-4.13-26.42-9.7-38.19-16.71c-11.78-7-21.56-16.23-29.36-27.69c-7.8-11.46-11.7-26.57-11.7-45.35
			c0-18.14,3.58-34.05,10.74-47.73c7.16-13.68,16.71-25.14,28.64-34.37c11.93-9.23,25.7-16.15,41.29-20.76
			c15.59-4.61,31.66-6.92,48.21-6.92c19.09,0,37.55,2.71,55.37,8.11c17.82,5.42,33.89,14.48,48.21,27.21L672.78,345.04z"/>
		<path class="st1" d="M930.55,262.46h61.58l147.02,337.96h-84.01l-29.12-71.6H894.75l-28.16,71.6h-82.1L930.55,262.46z
			 M959.19,360.79l-41.05,105.02h82.58L959.19,360.79z"/>
		<path class="st1" d="M1234.14,328.33h-96.42v-65.87h267.31v65.87h-96.42v272.09h-74.47V328.33z"/>
	</g>
	<g>
		<g>
			<path class="st1" d="M547.38,801.36c-6.87,0-13.36-1.04-19.44-3.12c-6.09-2.07-11.35-5.12-15.79-9.13
				c-4.44-4.01-7.95-8.88-10.53-14.61c-2.58-5.73-3.87-12.17-3.87-19.33c0-4.73,0.75-9.09,2.26-13.1c1.5-4.01,3.54-7.63,6.12-10.85
				c2.58-3.22,5.62-5.94,9.13-8.16c3.51-2.22,7.34-3.9,11.49-5.05v-0.64c-2.87-0.71-5.73-2-8.59-3.87
				c-2.87-1.86-5.41-4.22-7.63-7.09c-2.22-2.86-4.05-6.34-5.48-10.42c-1.43-4.08-2.15-8.77-2.15-14.07c0-5.73,1.18-10.92,3.54-15.57
				c2.36-4.65,5.58-8.63,9.67-11.92c4.08-3.29,8.81-5.83,14.18-7.62c5.37-1.79,11.06-2.69,17.08-2.69c6.01,0,11.71,0.9,17.08,2.69
				c5.37,1.79,10.1,4.33,14.18,7.62c4.08,3.3,7.3,7.27,9.67,11.92c2.36,4.66,3.54,9.85,3.54,15.57c0,5.3-0.72,9.99-2.15,14.07
				c-1.43,4.08-3.26,7.56-5.48,10.42c-2.22,2.87-4.76,5.23-7.63,7.09c-2.87,1.86-5.73,3.15-8.59,3.87v0.64
				c4.15,1.15,7.98,2.83,11.49,5.05c3.51,2.22,6.55,4.94,9.13,8.16c2.58,3.22,4.62,6.84,6.12,10.85c1.5,4.01,2.26,8.38,2.26,13.1
				c0,7.16-1.29,13.61-3.87,19.33c-2.58,5.73-6.09,10.6-10.53,14.61c-4.44,4.01-9.7,7.05-15.79,9.13
				C560.73,800.32,554.25,801.36,547.38,801.36z M547.38,783.32c8.59,0,15.57-2.61,20.94-7.84c5.37-5.23,8.05-11.99,8.05-20.3
				c0-4.58-0.75-8.63-2.25-12.14c-1.5-3.51-3.58-6.44-6.23-8.81c-2.65-2.36-5.73-4.15-9.24-5.37c-3.51-1.21-7.27-1.83-11.28-1.83
				c-8.45,0.14-15.4,2.83-20.84,8.05c-5.44,5.23-8.16,11.92-8.16,20.08c0,4.44,0.79,8.41,2.36,11.92c1.57,3.51,3.69,6.44,6.34,8.81
				c2.65,2.36,5.73,4.19,9.24,5.48C539.82,782.67,543.51,783.32,547.38,783.32z M523.53,684.94c0,3.01,0.54,5.94,1.61,8.81
				c1.07,2.87,2.61,5.41,4.62,7.63c2,2.22,4.47,4.05,7.41,5.48c2.93,1.43,6.34,2.15,10.2,2.15c4.01,0,7.48-0.68,10.42-2.04
				c2.93-1.36,5.4-3.15,7.41-5.37c2-2.22,3.51-4.76,4.51-7.63c1-2.86,1.5-5.87,1.5-9.02c0-7.01-2.18-12.78-6.55-17.29
				c-4.37-4.51-10.13-6.77-17.29-6.77c-6.59,0-12.21,2.22-16.86,6.66C525.86,671.98,523.53,677.78,523.53,684.94z"/>
			<path class="st1" d="M671.32,800.07c-3.87,0-7.2-1.4-9.99-4.19c-2.79-2.79-4.19-6.12-4.19-9.99c0-3.87,1.4-7.2,4.19-9.99
				c2.79-2.79,6.12-4.19,9.99-4.19c3.87,0,7.2,1.4,9.99,4.19c2.79,2.79,4.19,6.12,4.19,9.99c0,3.87-1.4,7.2-4.19,9.99
				C678.52,798.68,675.19,800.07,671.32,800.07z"/>
			<path class="st1" d="M745.43,776.87l61.01-60.58c2.15-2,4.22-4.19,6.23-6.55c2-2.36,3.79-4.83,5.37-7.41
				c1.57-2.58,2.83-5.3,3.76-8.16c0.93-2.86,1.4-5.87,1.4-9.02c0-3.72-0.68-7.09-2.04-10.1c-1.36-3.01-3.22-5.55-5.58-7.63
				c-2.36-2.07-5.16-3.69-8.38-4.83c-3.22-1.14-6.62-1.72-10.2-1.72c-7.45,0-13.61,2.08-18.47,6.23c-4.87,4.16-7.95,9.88-9.24,17.18
				l-22.34-1.93c1-6.73,2.97-12.57,5.91-17.51c2.93-4.94,6.58-9.06,10.96-12.35c4.37-3.29,9.38-5.73,15.04-7.3
				c5.66-1.57,11.78-2.36,18.37-2.36c6.58,0,12.78,0.9,18.58,2.69c5.8,1.79,10.88,4.44,15.25,7.95c4.37,3.51,7.8,7.88,10.31,13.1
				c2.5,5.23,3.76,11.35,3.76,18.37c0,5.01-0.75,9.7-2.26,14.07c-1.5,4.37-3.47,8.48-5.91,12.35c-2.44,3.87-5.23,7.52-8.38,10.96
				c-3.15,3.44-6.44,6.8-9.88,10.1l-50.05,48.33h76.47v18.04h-99.67V776.87z"/>
			<path class="st1" d="M899.23,776.87l61.01-60.58c2.15-2,4.22-4.19,6.23-6.55c2-2.36,3.79-4.83,5.37-7.41
				c1.57-2.58,2.83-5.3,3.76-8.16c0.93-2.86,1.4-5.87,1.4-9.02c0-3.72-0.68-7.09-2.04-10.1c-1.36-3.01-3.22-5.55-5.58-7.63
				c-2.36-2.07-5.16-3.69-8.38-4.83c-3.22-1.14-6.62-1.72-10.2-1.72c-7.45,0-13.61,2.08-18.47,6.23c-4.87,4.16-7.95,9.88-9.24,17.18
				l-22.34-1.93c1-6.73,2.97-12.57,5.91-17.51c2.93-4.94,6.58-9.06,10.96-12.35c4.37-3.29,9.38-5.73,15.04-7.3
				c5.66-1.57,11.78-2.36,18.37-2.36c6.58,0,12.78,0.9,18.58,2.69c5.8,1.79,10.88,4.44,15.25,7.95c4.37,3.51,7.8,7.88,10.31,13.1
				c2.5,5.23,3.76,11.35,3.76,18.37c0,5.01-0.75,9.7-2.26,14.07c-1.5,4.37-3.47,8.48-5.91,12.35c-2.44,3.87-5.23,7.52-8.38,10.96
				c-3.15,3.44-6.44,6.8-9.88,10.1l-50.05,48.33h76.47v18.04h-99.67V776.87z"/>
			<path class="st1" d="M1073.01,800.07c-3.87,0-7.2-1.4-9.99-4.19c-2.79-2.79-4.19-6.12-4.19-9.99c0-3.87,1.4-7.2,4.19-9.99
				c2.79-2.79,6.12-4.19,9.99-4.19c3.87,0,7.2,1.4,9.99,4.19c2.79,2.79,4.19,6.12,4.19,9.99c0,3.87-1.4,7.2-4.19,9.99
				C1080.21,798.68,1076.88,800.07,1073.01,800.07z"/>
			<path class="st1" d="M1147.12,776.87l61.01-60.58c2.15-2,4.22-4.19,6.23-6.55c2-2.36,3.79-4.83,5.37-7.41
				c1.57-2.58,2.83-5.3,3.76-8.16c0.93-2.86,1.4-5.87,1.4-9.02c0-3.72-0.68-7.09-2.04-10.1c-1.36-3.01-3.22-5.55-5.58-7.63
				c-2.36-2.07-5.16-3.69-8.38-4.83c-3.22-1.14-6.62-1.72-10.2-1.72c-7.45,0-13.61,2.08-18.47,6.23c-4.87,4.16-7.95,9.88-9.24,17.18
				l-22.34-1.93c1-6.73,2.97-12.57,5.91-17.51c2.93-4.94,6.58-9.06,10.96-12.35c4.37-3.29,9.38-5.73,15.04-7.3
				c5.66-1.57,11.78-2.36,18.37-2.36c6.58,0,12.78,0.9,18.58,2.69c5.8,1.79,10.88,4.44,15.25,7.95c4.37,3.51,7.8,7.88,10.31,13.1
				c2.5,5.23,3.76,11.35,3.76,18.37c0,5.01-0.75,9.7-2.26,14.07c-1.5,4.37-3.47,8.48-5.91,12.35c-2.44,3.87-5.23,7.52-8.38,10.96
				c-3.15,3.44-6.44,6.8-9.88,10.1l-50.05,48.33h76.47v18.04h-99.67V776.87z"/>
			<path class="st1" d="M1298.34,722.74c0-5.58,0.29-11.38,0.86-17.4c0.57-6.01,1.61-11.92,3.11-17.72s3.51-11.35,6.01-16.65
				c2.5-5.3,5.73-9.91,9.67-13.85c3.94-3.94,8.59-7.09,13.96-9.45c5.37-2.36,11.63-3.54,18.8-3.54c7.16,0,13.42,1.18,18.79,3.54
				c5.37,2.36,10.02,5.51,13.96,9.45c3.94,3.94,7.16,8.56,9.67,13.85c2.5,5.3,4.51,10.85,6.01,16.65s2.54,11.71,3.11,17.72
				c0.57,6.01,0.86,11.81,0.86,17.4c0,8.02-0.72,16.61-2.15,25.78c-1.43,9.17-4.08,17.69-7.95,25.56c-3.87,7.88-9.2,14.39-16,19.55
				c-6.8,5.16-15.57,7.73-26.31,7.73c-10.74,0-19.51-2.58-26.31-7.73c-6.8-5.16-12.14-11.67-16-19.55
				c-3.87-7.87-6.52-16.4-7.95-25.56C1299.06,739.36,1298.34,730.76,1298.34,722.74z M1318.96,722.74c0,5.01,0.32,10.96,0.97,17.83
				s2.04,13.5,4.19,19.87c2.15,6.37,5.33,11.78,9.56,16.22c4.22,4.44,9.91,6.66,17.08,6.66c7.16,0,12.85-2.22,17.08-6.66
				c4.22-4.44,7.41-9.84,9.56-16.22c2.15-6.37,3.54-13,4.19-19.87s0.97-12.81,0.97-17.83c0-3.44-0.11-7.34-0.32-11.71
				c-0.21-4.37-0.72-8.81-1.5-13.32c-0.79-4.51-1.9-8.88-3.33-13.1c-1.43-4.22-3.33-8.02-5.69-11.38c-2.36-3.36-5.26-6.05-8.7-8.06
				c-3.44-2-7.52-3.01-12.24-3.01c-4.73,0-8.81,1-12.24,3.01c-3.44,2.01-6.34,4.69-8.7,8.06c-2.36,3.37-4.26,7.16-5.69,11.38
				c-1.43,4.23-2.54,8.59-3.33,13.1c-0.79,4.51-1.29,8.95-1.5,13.32C1319.07,715.41,1318.96,719.31,1318.96,722.74z"/>
		</g>
	</g>
</g>
</svg>
