<?xml version="1.0" encoding="utf-8"?>
<!-- Generator: Adobe Illustrator 23.0.6, SVG Export Plug-In . SVG Version: 6.00 Build 0)  -->
<svg version="1.1" id="Layer_1" xmlns="http://www.w3.org/2000/svg" xmlns:xlink="http://www.w3.org/1999/xlink" x="0px" y="0px"
	 viewBox="0 0 472 841" style="enable-background:new 0 0 472 841;" xml:space="preserve">
<style type="text/css">
	.st0{fill:#5E8D41;}
	.st1{fill:#87CA5D;}
	.st2{fill:#72AB4F;}
	.st3{enable-background:new    ;}
	.st4{fill:#FFFFFF;}
</style>
<rect id="Rectangle_34" x="-209" y="876" class="st0" width="472" height="841"/>
<rect id="Rectangle_36" x="1018" y="914" class="st1" width="472" height="841"/>
<rect id="Rectangle_35" x="1" class="st2" width="470" height="841"/>
<g id="Group_9" transform="translate(-330.747 -1196)">
	
		<text transform="matrix(0 -1 1 0 384.8222 2846.4043)" class="st4" style="font-family:'OpenSans-Bold'; font-size:179px; letter-spacing:10;">FRIDAY</text>
	
		<text transform="matrix(0 -1 1 0 464.8222 2837.4043)" class="st4" style="font-family:'OpenSans-Regular'; font-size:71px; letter-spacing:4;">AUGUST. 21, 2020</text>
</g>
<g class="st3">
	<path class="st4" d="M224.46,701.62c8.07,0,14.42,2.81,19.07,8.44c4.65,5.63,6.97,13.46,6.97,23.49c0,9.24-1.79,17.41-5.38,24.52
		h-17.6c2.69-5.84,4.58-10.79,5.68-14.84c1.1-4.05,1.65-7.75,1.65-11.11c0-4.03-0.79-7.12-2.38-9.27c-1.59-2.15-3.95-3.23-7.09-3.23
		c-1.75,0-3.31,0.47-4.67,1.42c-1.37,0.95-2.68,2.34-3.94,4.18c-1.26,1.84-3.28,5.58-6.05,11.22c-2.57,5.29-5.03,9.26-7.4,11.91
		c-2.36,2.65-5.11,4.76-8.25,6.34c-3.14,1.58-6.8,2.37-11,2.37c-7.9,0-14.12-2.6-18.64-7.79c-4.52-5.19-6.78-12.37-6.78-21.53
		c0-4.5,0.55-8.8,1.65-12.88c1.1-4.09,2.65-8.36,4.64-12.82l14.73,5.92c-1.96,4.62-3.32,8.44-4.09,11.46
		c-0.77,3.02-1.16,5.99-1.16,8.91c0,3.48,0.83,6.14,2.5,8c1.67,1.86,3.85,2.78,6.54,2.78c1.67,0,3.13-0.38,4.37-1.12
		c1.24-0.75,2.44-1.94,3.61-3.58c1.16-1.64,3.25-5.52,6.26-11.64c3.99-8.09,8-13.64,12.01-16.64
		C213.71,703.12,218.63,701.62,224.46,701.62z"/>
	<path class="st4" d="M249.27,625.63L228,631.91v31.57l21.27,6.28v19.78l-89.72-30.56v-22.45l89.72-30.68V625.63z M212.11,636.29
		c-19.27,5.8-30.17,9.07-32.7,9.8c-2.53,0.73-4.52,1.25-5.99,1.57c5.22,1.3,18.11,5.03,38.69,11.19V636.29z"/>
	<path class="st4" d="M249.27,554.26v18.36h-73.58v23.52h-15.77v-65.39h15.77v23.52H249.27z"/>
	<path class="st4" d="M159.92,439.66h57.81c6.6,0,12.39,1.43,17.36,4.29c4.97,2.86,8.78,7,11.43,12.41s3.97,11.81,3.97,19.19
		c0,11.14-2.94,19.78-8.83,25.94c-5.89,6.16-13.94,9.24-24.17,9.24h-57.57v-18.3h54.7c6.89,0,11.94-1.34,15.16-4.03
		c3.22-2.69,4.83-7.13,4.83-13.33c0-6-1.62-10.36-4.86-13.06c-3.24-2.7-8.32-4.06-15.25-4.06h-54.58V439.66z"/>
	<path class="st4" d="M214.98,392.81h34.29v18.36h-89.35v-25.23c0-11.77,2.21-20.47,6.63-26.12s11.13-8.47,20.14-8.47
		c5.26,0,9.93,1.4,14.03,4.21c4.09,2.8,7.3,6.77,9.62,11.91c20.09-13.03,33.06-21.52,38.93-25.47v20.38l-34.29,20.67V392.81z
		 M199.58,392.81v-5.92c0-5.8-1-10.09-3-12.85c-2-2.76-5.13-4.15-9.41-4.15c-4.24,0-7.25,1.41-9.04,4.23
		c-1.79,2.82-2.69,7.2-2.69,13.12v5.57H199.58z"/>
	<path class="st4" d="M203.74,251.96c14.71,0,25.97,4.06,33.8,12.17c7.82,8.11,11.73,19.83,11.73,35.15v24.52h-89.35v-27.19
		c0-14.14,3.85-25.11,11.55-32.93C179.17,255.87,189.93,251.96,203.74,251.96z M204.23,271.04c-19.19,0-28.79,8.21-28.79,24.64v9.77
		h58.18v-7.88C233.62,279.88,223.83,271.04,204.23,271.04z"/>
	<path class="st4" d="M249.27,173.72L228,180v31.57l21.27,6.28v19.78l-89.72-30.56v-22.45l89.72-30.68V173.72z M212.11,184.39
		c-19.27,5.8-30.17,9.07-32.7,9.8c-2.53,0.73-4.52,1.25-5.99,1.57c5.22,1.3,18.11,5.03,38.69,11.19V184.39z"/>
	<path class="st4" d="M196.71,108.81l-36.79-18.07V70.96l54.58,28.73h34.77v18.24h-34.16l-55.19,28.73v-19.9L196.71,108.81z"/>
</g>
<g class="st3">
	<path class="st4" d="M307.76,737.58l-11.16,4.24v13.64l11.16,4.19v4l-35.25-13.45v-3.33l35.25-13.38V737.58z M292.92,743.04
		L282.04,747c-1.38,0.51-3.06,1.04-5.07,1.58c1.54,0.34,3.22,0.83,5.07,1.47l10.88,4V743.04z"/>
	<path class="st4" d="M272.66,685.24h22.71c4,0,7.15,1.17,9.44,3.51c2.29,2.34,3.43,5.56,3.43,9.66s-1.15,7.26-3.46,9.51
		c-2.3,2.24-5.47,3.36-9.51,3.36h-22.62v-3.96h22.91c2.93,0,5.18-0.78,6.75-2.33c1.57-1.55,2.35-3.83,2.35-6.84
		c0-2.87-0.79-5.08-2.36-6.63c-1.58-1.55-3.84-2.33-6.78-2.33h-22.86V685.24z"/>
	<path class="st4" d="M289.37,643.4v-11.57h17.07c0.59,1.8,1.04,3.63,1.34,5.49c0.3,1.86,0.46,4.02,0.46,6.47
		c0,5.15-1.58,9.16-4.74,12.03s-7.59,4.3-13.29,4.3c-3.65,0-6.85-0.71-9.59-2.13c-2.75-1.42-4.84-3.46-6.29-6.13
		c-1.45-2.67-2.17-5.79-2.17-9.38c0-3.63,0.69-7.01,2.06-10.15l3.6,1.54c-1.34,3.07-2.02,6.03-2.02,8.87c0,4.14,1.27,7.38,3.82,9.7
		s6.07,3.49,10.59,3.49c4.74,0,8.33-1.12,10.78-3.36c2.45-2.24,3.67-5.53,3.67-9.88c0-2.36-0.28-4.66-0.84-6.91h-10.8v7.61H289.37z"
		/>
	<path class="st4" d="M272.66,580.11h22.71c4,0,7.15,1.17,9.44,3.51c2.29,2.34,3.43,5.56,3.43,9.66s-1.15,7.26-3.46,9.51
		c-2.3,2.24-5.47,3.36-9.51,3.36h-22.62v-3.96h22.91c2.93,0,5.18-0.78,6.75-2.33c1.57-1.55,2.35-3.83,2.35-6.84
		c0-2.87-0.79-5.08-2.36-6.63c-1.58-1.55-3.84-2.33-6.78-2.33h-22.86V580.11z"/>
	<path class="st4" d="M298.42,534.03c3.09,0,5.5,1.09,7.23,3.26c1.73,2.17,2.59,5.12,2.59,8.84c0,4.03-0.54,7.14-1.61,9.31h-3.94
		c0.61-1.4,1.09-2.92,1.44-4.56c0.35-1.64,0.53-3.27,0.53-4.89c0-2.64-0.52-4.62-1.55-5.96s-2.47-2-4.31-2
		c-1.22,0-2.21,0.24-2.99,0.71c-0.78,0.47-1.49,1.26-2.15,2.37c-0.66,1.11-1.4,2.8-2.23,5.06c-1.17,3.17-2.55,5.43-4.15,6.78
		c-1.6,1.36-3.69,2.04-6.27,2.04c-2.71,0-4.86-0.98-6.46-2.96c-1.6-1.97-2.4-4.58-2.4-7.82c0-3.38,0.64-6.49,1.92-9.33l3.55,1.23
		c-1.22,2.81-1.82,5.54-1.82,8.19c0,2.09,0.46,3.73,1.39,4.91s2.22,1.77,3.87,1.77c1.22,0,2.21-0.22,2.99-0.65s1.49-1.17,2.14-2.2
		c0.65-1.03,1.37-2.61,2.15-4.74c1.31-3.57,2.72-6.02,4.23-7.37C294.06,534.7,296.02,534.03,298.42,534.03z"/>
	<path class="st4" d="M307.76,498.73v3.96h-31.48v10.77h-3.63v-25.5h3.63v10.77H307.76z"/>
	<path class="st4" d="M305.21,466.11c-1.07,0-1.88-0.24-2.44-0.71c-0.55-0.47-0.83-1.15-0.83-2.04c0-0.9,0.28-1.6,0.83-2.11
		c0.55-0.5,1.36-0.76,2.44-0.76c1.04,0,1.84,0.26,2.4,0.77c0.56,0.51,0.84,1.21,0.84,2.09c0,0.79-0.25,1.45-0.76,1.97
		C307.19,465.85,306.36,466.11,305.21,466.11z"/>
	<path class="st4" d="M307.76,384.15v22.36h-3.43l-9.29-8.96c-2.85-2.73-4.88-4.53-6.1-5.4c-1.22-0.87-2.4-1.52-3.55-1.96
		c-1.15-0.43-2.39-0.65-3.72-0.65c-1.87,0-3.36,0.55-4.45,1.65c-1.1,1.1-1.64,2.63-1.64,4.58c0,1.41,0.24,2.75,0.72,4.01
		c0.48,1.26,1.35,2.67,2.62,4.22l-2.71,2.05c-2.69-3.13-4.03-6.55-4.03-10.24c0-3.2,0.84-5.7,2.53-7.52
		c1.69-1.81,3.96-2.72,6.81-2.72c2.22,0,4.43,0.61,6.6,1.82s4.93,3.48,8.26,6.79l7.51,7.45h0.19v-17.5H307.76z"/>
	<path class="st4" d="M307.76,339.03v22.36h-3.43l-9.29-8.96c-2.85-2.73-4.88-4.53-6.1-5.4c-1.22-0.87-2.4-1.52-3.55-1.96
		c-1.15-0.43-2.39-0.65-3.72-0.65c-1.87,0-3.36,0.55-4.45,1.65c-1.1,1.1-1.64,2.63-1.64,4.58c0,1.41,0.24,2.75,0.72,4.01
		c0.48,1.26,1.35,2.67,2.62,4.22l-2.71,2.05c-2.69-3.13-4.03-6.55-4.03-10.24c0-3.2,0.84-5.7,2.53-7.52
		c1.69-1.81,3.96-2.72,6.81-2.72c2.22,0,4.43,0.61,6.6,1.82s4.93,3.48,8.26,6.79l7.51,7.45h0.19v-17.5H307.76z"/>
	<path class="st4" d="M302.04,310.46l0.55-0.35c1.6,0.4,3.46,0.99,5.58,1.75c2.12,0.76,4.09,1.55,5.92,2.37v2.91
		c-1.67-0.42-3.72-0.88-6.17-1.38s-4.41-0.86-5.88-1.06V310.46z"/>
	<path class="st4" d="M307.76,234.11v22.36h-3.43l-9.29-8.96c-2.85-2.73-4.88-4.53-6.1-5.4c-1.22-0.87-2.4-1.52-3.55-1.95
		c-1.15-0.43-2.39-0.65-3.72-0.65c-1.87,0-3.36,0.55-4.45,1.65c-1.1,1.1-1.64,2.63-1.64,4.58c0,1.41,0.24,2.75,0.72,4.01
		c0.48,1.26,1.35,2.67,2.62,4.22l-2.71,2.05c-2.69-3.13-4.03-6.55-4.03-10.24c0-3.2,0.84-5.7,2.53-7.52
		c1.69-1.82,3.96-2.72,6.81-2.72c2.22,0,4.43,0.6,6.6,1.81s4.93,3.48,8.26,6.79l7.51,7.45h0.19v-17.5H307.76z"/>
	<path class="st4" d="M290.16,188.8c6.07,0,10.6,0.93,13.59,2.78c2.99,1.85,4.49,4.69,4.49,8.5c0,3.66-1.53,6.45-4.6,8.35
		c-3.07,1.91-7.56,2.86-13.48,2.86c-6.11,0-10.65-0.92-13.61-2.77s-4.44-4.66-4.44-8.45c0-3.69,1.54-6.5,4.63-8.41
		C279.83,189.76,284.3,188.8,290.16,188.8z M290.16,207.39c5.11,0,8.82-0.58,11.15-1.75c2.33-1.16,3.49-3.02,3.49-5.56
		c0-2.57-1.18-4.44-3.54-5.6c-2.36-1.16-6.06-1.73-11.1-1.73s-8.74,0.58-11.08,1.73s-3.52,3.02-3.52,5.6c0,2.54,1.16,4.4,3.47,5.56
		C281.34,206.81,285.05,207.39,290.16,207.39z"/>
	<path class="st4" d="M307.76,143.87v22.36h-3.43l-9.29-8.96c-2.85-2.73-4.88-4.53-6.1-5.4c-1.22-0.87-2.4-1.52-3.55-1.95
		c-1.15-0.43-2.39-0.65-3.72-0.65c-1.87,0-3.36,0.55-4.45,1.65c-1.1,1.1-1.64,2.63-1.64,4.58c0,1.41,0.24,2.75,0.72,4.01
		c0.48,1.26,1.35,2.67,2.62,4.22l-2.71,2.05c-2.69-3.13-4.03-6.55-4.03-10.24c0-3.2,0.84-5.7,2.53-7.52
		c1.69-1.82,3.96-2.72,6.81-2.72c2.22,0,4.43,0.6,6.6,1.81s4.93,3.48,8.26,6.79l7.51,7.45h0.19v-17.5H307.76z"/>
	<path class="st4" d="M290.16,98.56c6.07,0,10.6,0.93,13.59,2.78c2.99,1.85,4.49,4.69,4.49,8.5c0,3.66-1.53,6.45-4.6,8.35
		c-3.07,1.91-7.56,2.86-13.48,2.86c-6.11,0-10.65-0.92-13.61-2.77s-4.44-4.66-4.44-8.45c0-3.69,1.54-6.5,4.63-8.41
		C279.83,99.52,284.3,98.56,290.16,98.56z M290.16,117.15c5.11,0,8.82-0.58,11.15-1.75c2.33-1.16,3.49-3.02,3.49-5.56
		c0-2.57-1.18-4.44-3.54-5.6c-2.36-1.16-6.06-1.73-11.1-1.73s-8.74,0.58-11.08,1.73s-3.52,3.02-3.52,5.6c0,2.54,1.16,4.4,3.47,5.56
		C281.34,116.57,285.05,117.15,290.16,117.15z"/>
</g>
<g id="Group_49" transform="translate(-493.247 -510.5)">
	
		<text transform="matrix(0 -0.9781 1 0 1767.9882 2189.5703)" class="st4" style="font-family:'OpenSans-Bold'; font-size:156.0694px; letter-spacing:9.2;">SUNDAY</text>
	
		<text transform="matrix(0 -0.9781 1 0 1837.8085 2185.5537)" class="st4" style="font-family:'OpenSans-Regular'; font-size:61.6063px; letter-spacing:10.22;">AUGUST. 23, 2020</text>
</g>
</svg>
