<?xml version="1.0" encoding="utf-8"?>
<!-- Generator: Adobe Illustrator 23.0.6, SVG Export Plug-In . SVG Version: 6.00 Build 0)  -->
<svg version="1.1" id="Layer_1" xmlns="http://www.w3.org/2000/svg" xmlns:xlink="http://www.w3.org/1999/xlink" x="0px" y="0px"
	 viewBox="0 0 1920 1080" style="enable-background:new 0 0 1920 1080;" xml:space="preserve">
<style type="text/css">
	.st0{fill:#87CA5D;}
	.st1{fill:#FFFFFF;}
</style>
<rect id="Rectangle_12_3_" x="-0.33" y="-0.3" class="st0" width="1920" height="1080"/>
<g>
	<g>
		<path class="st1" d="M662.61,343.6c-6.2-7.94-14.6-13.81-25.19-17.61c-10.6-3.8-20.63-5.71-30.08-5.71
			c-5.55,0-11.25,0.67-17.12,1.98c-5.87,1.33-11.42,3.4-16.63,6.2c-5.22,2.81-9.46,6.53-12.72,11.16
			c-3.26,4.64-4.89,10.25-4.89,16.87c0,10.59,3.91,18.69,11.74,24.31c7.83,5.63,17.69,10.42,29.6,14.39
			c11.9,3.97,24.7,7.94,38.4,11.91s26.49,9.6,38.4,16.87c11.9,7.28,21.77,17.04,29.6,29.27c7.83,12.24,11.74,28.61,11.74,49.11
			c0,19.52-3.59,36.55-10.76,51.1c-7.18,14.56-16.88,26.62-29.11,36.21c-12.23,9.6-26.42,16.7-42.56,21.33
			c-16.14,4.63-33.19,6.95-51.12,6.95c-22.5,0-43.38-3.47-62.62-10.42c-19.25-6.95-37.18-18.18-53.81-33.73l54.3-60.52
			c7.83,10.59,17.69,18.77,29.6,24.56c11.9,5.79,24.21,8.68,36.93,8.68c6.19,0,12.47-0.74,18.83-2.23
			c6.36-1.49,12.06-3.72,17.12-6.7c5.05-2.98,9.13-6.77,12.23-11.41c3.1-4.63,4.65-10.08,4.65-16.37c0-10.58-4-18.93-11.99-25.05
			c-8-6.12-18.02-11.32-30.08-15.63c-12.07-4.29-25.12-8.6-39.14-12.9c-14.03-4.29-27.07-10.08-39.13-17.36
			c-12.07-7.27-22.1-16.87-30.09-28.77c-8-11.91-11.99-27.61-11.99-47.13c0-18.85,3.67-35.38,11.01-49.61
			c7.34-14.22,17.12-26.12,29.35-35.72c12.23-9.59,26.33-16.78,42.32-21.58c15.98-4.79,32.45-7.19,49.41-7.19
			c19.57,0,38.48,2.81,56.75,8.43c18.26,5.63,34.73,15.05,49.41,28.28L662.61,343.6z"/>
		<path class="st1" d="M1042.22,473.57c0,20.84-3.1,40.02-9.29,57.54c-6.2,17.53-15.41,32.74-27.64,45.64
			c-12.23,12.9-27.48,22.99-45.74,30.26c-18.27,7.27-39.3,10.91-63.11,10.91c-24.14,0-45.33-3.64-63.6-10.91
			c-18.27-7.27-33.51-17.36-45.74-30.26c-12.23-12.9-21.45-28.11-27.64-45.64c-6.2-17.53-9.29-36.71-9.29-57.54V257.78h76.31V470.6
			c0,10.91,1.71,21.01,5.14,30.26c3.42,9.26,8.23,17.29,14.43,24.06c6.19,6.78,13.61,12.08,22.26,15.87
			c8.64,3.81,18.02,5.71,28.13,5.71c10.1,0,19.4-1.9,27.88-5.71c8.48-3.8,15.81-9.09,22.01-15.87c6.19-6.77,11.01-14.8,14.43-24.06
			c3.42-9.26,5.14-19.35,5.14-30.26V257.78h76.31V473.57z"/>
		<path class="st1" d="M1090.65,257.78h103.71l147.25,244.07h0.98V257.78h76.31V609h-99.79l-151.16-250.02h-0.98V609h-76.31V257.78z
			"/>
	</g>
	<g>
		<path class="st1" d="M521.86,805.43c-7.04,0-13.69-1.08-19.92-3.24c-6.24-2.16-11.63-5.32-16.18-9.49
			c-4.55-4.16-8.15-9.23-10.79-15.18c-2.64-5.95-3.96-12.65-3.96-20.09c0-4.91,0.77-9.45,2.31-13.62c1.54-4.16,3.63-7.92,6.27-11.27
			c2.64-3.35,5.76-6.17,9.36-8.48c3.59-2.31,7.52-4.05,11.78-5.25v-0.67c-2.94-0.74-5.87-2.08-8.81-4.02
			c-2.94-1.93-5.54-4.39-7.82-7.37c-2.28-2.98-4.15-6.59-5.61-10.83c-1.47-4.24-2.2-9.11-2.2-14.62c0-5.95,1.21-11.35,3.63-16.18
			c2.42-4.83,5.72-8.96,9.91-12.39c4.18-3.42,9.03-6.06,14.53-7.92c5.5-1.86,11.34-2.79,17.5-2.79s12,0.93,17.5,2.79
			c5.5,1.86,10.35,4.5,14.53,7.92c4.18,3.43,7.48,7.56,9.91,12.39c2.42,4.84,3.63,10.23,3.63,16.18c0,5.51-0.74,10.38-2.2,14.62
			c-1.47,4.24-3.34,7.85-5.61,10.83c-2.28,2.98-4.88,5.43-7.81,7.37c-2.94,1.94-5.87,3.28-8.81,4.02v0.67
			c4.25,1.19,8.18,2.94,11.78,5.25c3.59,2.31,6.71,5.13,9.36,8.48c2.64,3.35,4.73,7.11,6.27,11.27c1.54,4.17,2.31,8.71,2.31,13.62
			c0,7.44-1.32,14.14-3.96,20.09c-2.64,5.95-6.24,11.02-10.79,15.18c-4.55,4.17-9.94,7.33-16.18,9.49
			C535.54,804.34,528.9,805.43,521.86,805.43z M521.86,786.67c8.81,0,15.96-2.71,21.46-8.15c5.5-5.43,8.26-12.46,8.26-21.1
			c0-4.76-0.77-8.96-2.31-12.61c-1.54-3.64-3.67-6.7-6.38-9.15c-2.72-2.46-5.87-4.32-9.47-5.58c-3.6-1.26-7.45-1.9-11.56-1.9
			c-8.66,0.15-15.78,2.94-21.35,8.37c-5.58,5.43-8.37,12.39-8.37,20.87c0,4.61,0.8,8.74,2.42,12.39c1.61,3.65,3.78,6.7,6.49,9.15
			c2.71,2.46,5.87,4.35,9.47,5.69C514.12,786,517.9,786.67,521.86,786.67z M497.42,684.43c0,3.12,0.55,6.18,1.65,9.15
			c1.1,2.98,2.68,5.62,4.73,7.92c2.05,2.31,4.58,4.21,7.59,5.69c3.01,1.49,6.49,2.23,10.46,2.23c4.11,0,7.67-0.7,10.68-2.12
			c3.01-1.41,5.54-3.27,7.59-5.58c2.05-2.31,3.59-4.95,4.62-7.93c1.02-2.97,1.54-6.1,1.54-9.38c0-7.29-2.24-13.28-6.71-17.97
			c-4.48-4.69-10.38-7.03-17.72-7.03c-6.75,0-12.51,2.31-17.28,6.92C499.81,670.96,497.42,676.99,497.42,684.43z"/>
		<path class="st1" d="M651.96,804.09c-3.96,0-7.37-1.45-10.24-4.35c-2.86-2.9-4.29-6.36-4.29-10.38c0-4.02,1.43-7.48,4.29-10.38
			c2.86-2.9,6.27-4.35,10.24-4.35c3.96,0,7.38,1.45,10.24,4.35c2.86,2.9,4.29,6.36,4.29,10.38c0,4.02-1.43,7.48-4.29,10.38
			C659.33,802.64,655.92,804.09,651.96,804.09z"/>
		<path class="st1" d="M730.99,779.98l62.52-62.95c2.2-2.08,4.33-4.35,6.38-6.81c2.05-2.46,3.89-5.02,5.5-7.7
			c1.61-2.68,2.9-5.5,3.85-8.48c0.95-2.98,1.43-6.1,1.43-9.38c0-3.87-0.7-7.37-2.09-10.49c-1.4-3.12-3.3-5.77-5.72-7.92
			c-2.42-2.16-5.28-3.83-8.58-5.02c-3.3-1.19-6.79-1.79-10.46-1.79c-7.63,0-13.94,2.16-18.93,6.47c-4.99,4.32-8.14,10.27-9.47,17.86
			l-22.89-2.01c1.03-6.99,3.04-13.06,6.05-18.19c3.01-5.13,6.75-9.41,11.23-12.84c4.47-3.42,9.61-5.95,15.41-7.59
			c5.8-1.64,12.07-2.46,18.82-2.46c6.75,0,13.1,0.93,19.04,2.79c5.94,1.86,11.15,4.61,15.63,8.26c4.48,3.65,8,8.19,10.57,13.62
			c2.57,5.43,3.85,11.8,3.85,19.09c0,5.21-0.77,10.08-2.31,14.62c-1.54,4.54-3.56,8.82-6.05,12.84c-2.5,4.02-5.36,7.81-8.58,11.38
			c-3.23,3.57-6.6,7.07-10.13,10.49L754.76,784h78.37v18.75H730.99V779.98z"/>
		<path class="st1" d="M914.14,764.13c2.48,7.59,5.81,13.25,9.98,16.97c4.17,3.72,10.34,5.58,18.53,5.58c4.09,0,7.93-0.7,11.51-2.12
			c3.58-1.41,6.76-3.35,9.54-5.8c2.78-2.46,4.97-5.43,6.58-8.93c1.61-3.49,2.42-7.4,2.42-11.72c0-6.55-1.36-11.79-4.07-15.74
			c-2.72-3.94-6.2-6.92-10.46-8.93c-4.26-2.01-8.95-3.31-14.09-3.91c-5.14-0.59-10.2-0.89-15.19-0.89v-18.75
			c8.07,0,14.67-0.56,19.81-1.67c5.14-1.12,9.17-2.71,12.11-4.8c2.93-2.08,4.99-4.69,6.16-7.81c1.17-3.12,1.76-6.62,1.76-10.49
			c0-8.48-2.5-14.88-7.48-19.2c-4.99-4.31-11.23-6.47-18.71-6.47c-5.72,0-10.9,1.67-15.52,5.02c-4.62,3.35-8.11,7.78-10.46,13.28
			l-21.57-7.37c4.11-10.12,10.38-17.6,18.82-22.43c8.44-4.83,17.87-7.26,28.29-7.26c6.31,0,12.36,0.86,18.16,2.57
			c5.8,1.71,10.9,4.35,15.3,7.92c4.4,3.57,7.89,8.08,10.46,13.51c2.57,5.43,3.85,11.8,3.85,19.09c0,8.34-2.46,15.78-7.38,22.32
			c-4.92,6.55-11.34,11.02-19.26,13.39v0.45c4.84,0.89,9.17,2.53,12.99,4.91c3.81,2.38,7.04,5.36,9.69,8.93
			c2.64,3.57,4.62,7.55,5.94,11.94c1.32,4.39,1.98,9.04,1.98,13.95c0,7.59-1.43,14.25-4.29,19.98c-2.86,5.73-6.68,10.49-11.45,14.29
			c-4.77,3.79-10.27,6.66-16.51,8.59c-6.24,1.93-12.81,2.9-19.7,2.9c-11.89,0-22.34-2.75-31.37-8.26
			c-9.03-5.5-15.3-14.21-18.82-26.12L914.14,764.13z"/>
		<path class="st1" d="M1072.86,804.09c-3.96,0-7.37-1.45-10.24-4.35c-2.86-2.9-4.29-6.36-4.29-10.38c0-4.02,1.43-7.48,4.29-10.38
			c2.86-2.9,6.27-4.35,10.24-4.35c3.96,0,7.38,1.45,10.24,4.35c2.86,2.9,4.29,6.36,4.29,10.38c0,4.02-1.43,7.48-4.29,10.38
			C1080.24,802.64,1076.83,804.09,1072.86,804.09z"/>
		<path class="st1" d="M1151.89,779.98l62.52-62.95c2.2-2.08,4.33-4.35,6.38-6.81c2.05-2.46,3.89-5.02,5.5-7.7
			c1.61-2.68,2.9-5.5,3.85-8.48c0.95-2.98,1.43-6.1,1.43-9.38c0-3.87-0.7-7.37-2.09-10.49c-1.4-3.12-3.3-5.77-5.72-7.92
			c-2.42-2.16-5.28-3.83-8.58-5.02c-3.3-1.19-6.79-1.79-10.46-1.79c-7.63,0-13.94,2.16-18.93,6.47c-4.99,4.32-8.14,10.27-9.47,17.86
			l-22.89-2.01c1.03-6.99,3.04-13.06,6.05-18.19c3.01-5.13,6.75-9.41,11.23-12.84c4.47-3.42,9.61-5.95,15.41-7.59
			c5.8-1.64,12.07-2.46,18.82-2.46c6.75,0,13.1,0.93,19.04,2.79c5.94,1.86,11.15,4.61,15.63,8.26c4.48,3.65,8,8.19,10.57,13.62
			c2.57,5.43,3.85,11.8,3.85,19.09c0,5.21-0.77,10.08-2.31,14.62c-1.54,4.54-3.56,8.82-6.05,12.84c-2.5,4.02-5.36,7.81-8.58,11.38
			c-3.23,3.57-6.6,7.07-10.13,10.49L1175.67,784h78.37v18.75h-102.14V779.98z"/>
		<path class="st1" d="M1309.95,723.72c0-5.8,0.29-11.83,0.88-18.08c0.58-6.25,1.65-12.39,3.19-18.42s3.59-11.79,6.16-17.3
			c2.57-5.5,5.87-10.3,9.91-14.4c4.04-4.09,8.81-7.37,14.31-9.82c5.5-2.46,11.92-3.68,19.26-3.68c7.34,0,13.76,1.23,19.26,3.68
			c5.5,2.46,10.27,5.73,14.31,9.82c4.04,4.09,7.34,8.89,9.91,14.4c2.57,5.51,4.62,11.27,6.16,17.3s2.6,12.17,3.19,18.42
			c0.58,6.25,0.88,12.28,0.88,18.08c0,8.34-0.74,17.27-2.2,26.79c-1.47,9.53-4.18,18.38-8.14,26.57
			c-3.96,8.19-9.43,14.96-16.4,20.31c-6.97,5.36-15.96,8.04-26.97,8.04s-20-2.68-26.97-8.04c-6.97-5.36-12.44-12.13-16.4-20.31
			c-3.96-8.18-6.68-17.04-8.15-26.57C1310.68,740.99,1309.95,732.06,1309.95,723.72z M1331.08,723.72c0,5.21,0.33,11.38,0.99,18.53
			s2.09,14.03,4.29,20.65c2.2,6.62,5.47,12.24,9.8,16.85c4.33,4.61,10.16,6.92,17.5,6.92c7.34,0,13.17-2.31,17.5-6.92
			c4.33-4.61,7.59-10.23,9.8-16.85c2.2-6.62,3.63-13.51,4.29-20.65c0.66-7.14,0.99-13.32,0.99-18.53c0-3.57-0.11-7.62-0.33-12.17
			c-0.22-4.54-0.74-9.15-1.54-13.84c-0.81-4.69-1.95-9.23-3.41-13.62c-1.47-4.39-3.41-8.33-5.83-11.83
			c-2.42-3.5-5.39-6.29-8.92-8.37c-3.52-2.08-7.71-3.12-12.55-3.12s-9.03,1.04-12.55,3.12c-3.52,2.09-6.49,4.88-8.92,8.37
			c-2.42,3.5-4.37,7.44-5.83,11.83c-1.47,4.39-2.61,8.93-3.41,13.62c-0.81,4.69-1.32,9.3-1.54,13.84
			C1331.19,716.1,1331.08,720.15,1331.08,723.72z"/>
	</g>
</g>
</svg>
