<?xml version="1.0" encoding="utf-8"?>
<!-- Generator: Adobe Illustrator 23.0.6, SVG Export Plug-In . SVG Version: 6.00 Build 0)  -->
<svg version="1.1" id="Layer_1" xmlns="http://www.w3.org/2000/svg" xmlns:xlink="http://www.w3.org/1999/xlink" x="0px" y="0px"
	 viewBox="0 0 472 841" style="enable-background:new 0 0 472 841;" xml:space="preserve">
<style type="text/css">
	.st0{fill:#5E8D41;}
	.st1{fill:#87CA5D;}
	.st2{fill:#72AB4F;}
	.st3{enable-background:new    ;}
	.st4{fill:#FFFFFF;}
</style>
<rect id="Rectangle_34" x="-209" y="876" class="st0" width="472" height="841"/>
<rect id="Rectangle_36" class="st1" width="472" height="841"/>
<rect id="Rectangle_35" x="308" y="876" class="st2" width="470" height="841"/>
<g id="Group_9" transform="translate(-330.747 -1196)">
	
		<text transform="matrix(0 -1 1 0 384.8222 2846.4043)" class="st4" style="font-family:'OpenSans-Bold'; font-size:179px; letter-spacing:10;">FRIDAY</text>
	
		<text transform="matrix(0 -1 1 0 464.8222 2837.4043)" class="st4" style="font-family:'OpenSans-Regular'; font-size:71px; letter-spacing:4;">AUGUST. 21, 2020</text>
</g>
<g id="Group_36" transform="translate(-1491 -1186.641)">
	
		<text transform="matrix(0 -0.9692 1 0 2047.2698 2826.2786)" class="st4" style="font-family:'OpenSans-Bold'; font-size:125.162px; letter-spacing:7.22;">SATURDAY</text>
	
		<text transform="matrix(0 -0.9692 1 0 2105.7571 2826.2786)" class="st4" style="font-family:'OpenSans-Regular'; font-size:49.1708px; letter-spacing:17.54;">AUGUST. 22, 2020</text>
</g>
<g id="Group_49" transform="translate(-493.247 -510.5)">
	<g class="st3">
		<path class="st4" d="M719.05,1197.53c10.06,0,17.98,3.54,23.78,10.62c5.79,7.08,8.69,16.93,8.69,29.55
			c0,11.63-2.24,21.91-6.71,30.86h-21.95c3.35-7.35,5.71-13.58,7.09-18.67c1.37-5.09,2.06-9.75,2.06-13.98
			c0-5.07-0.99-8.96-2.97-11.66c-1.98-2.71-4.93-4.06-8.84-4.06c-2.18,0-4.13,0.6-5.83,1.79s-3.34,2.94-4.92,5.25
			c-1.57,2.31-4.09,7.02-7.54,14.12c-3.2,6.66-6.27,11.65-9.22,14.98c-2.95,3.33-6.38,5.99-10.29,7.97
			c-3.91,1.99-8.48,2.98-13.72,2.98c-9.86,0-17.6-3.27-23.24-9.8c-5.64-6.53-8.46-15.57-8.46-27.09c0-5.66,0.69-11.07,2.06-16.21
			c1.37-5.14,3.3-10.52,5.79-16.14l18.37,7.45c-2.44,5.81-4.14,10.62-5.11,14.42c-0.96,3.8-1.45,7.54-1.45,11.22
			c0,4.37,1.04,7.73,3.12,10.06c2.08,2.34,4.8,3.5,8.15,3.5c2.08,0,3.9-0.47,5.45-1.42c1.55-0.94,3.05-2.45,4.5-4.51
			c1.45-2.06,4.05-6.94,7.81-14.65c4.98-10.19,9.97-17.17,14.97-20.94C705.65,1199.42,711.78,1197.53,719.05,1197.53z"/>
		<path class="st4" d="M638.58,1079.93h72.09c8.23,0,15.45,1.8,21.64,5.4c6.2,3.6,10.95,8.81,14.25,15.62
			c3.3,6.81,4.95,14.86,4.95,24.15c0,14.01-3.67,24.89-11.01,32.65c-7.34,7.75-17.39,11.63-30.14,11.63h-71.79v-23.03h68.2
			c8.59,0,14.89-1.69,18.9-5.07c4.01-3.38,6.02-8.97,6.02-16.77c0-7.55-2.02-13.03-6.06-16.43s-10.38-5.11-19.01-5.11h-68.05
			V1079.93z"/>
		<path class="st4" d="M749.99,947.42v29.37l-84.28,47.4v0.67c14.89-0.94,25.5-1.42,31.85-1.42h52.43v20.65H638.58v-29.14
			l83.45-47.33v-0.52c-14.48,0.75-24.72,1.12-30.71,1.12h-52.73v-20.79H749.99z"/>
		<path class="st4" d="M693.21,820.42c18.34,0,32.39,5.11,42.14,15.32c9.75,10.21,14.63,24.96,14.63,44.24v30.86H638.58v-34.21
			c0-17.79,4.8-31.6,14.4-41.44C662.58,825.34,675.99,820.42,693.21,820.42z M693.82,844.42c-23.93,0-35.89,10.34-35.89,31.01v12.3
			h72.55v-9.91C730.48,855.55,718.26,844.42,693.82,844.42z"/>
		<path class="st4" d="M749.99,721.97l-26.52,7.9v39.73l26.52,7.9v24.89l-111.87-38.46v-28.25l111.87-38.61V721.97z M703.66,735.39
			c-24.03,7.3-37.62,11.42-40.77,12.34c-3.15,0.92-5.64,1.58-7.47,1.98c6.5,1.64,22.58,6.34,48.24,14.09V735.39z"/>
		<path class="st4" d="M684.45,640.29l-45.88-22.73v-24.89l68.05,36.15h43.36v22.96h-42.6l-68.81,36.15v-25.04L684.45,640.29z"/>
	</g>
	<g class="st3">
		<path class="st4" d="M819.81,1238.6l-13.99,5.36v17.24l13.99,5.3v5.06l-44.16-17.01v-4.21l44.16-16.92V1238.6z M801.22,1245.52
			l-13.63,5c-1.72,0.65-3.84,1.31-6.35,2c1.93,0.43,4.04,1.05,6.35,1.85l13.63,5.06V1245.52z"/>
		<path class="st4" d="M775.83,1184.79h28.46c5.01,0,8.95,1.48,11.82,4.44c2.87,2.96,4.3,7.03,4.3,12.21
			c0,5.18-1.44,9.18-4.33,12.02c-2.89,2.83-6.86,4.25-11.91,4.25h-28.34v-5h28.7c3.67,0,6.49-0.98,8.45-2.94
			c1.96-1.96,2.95-4.84,2.95-8.65c0-3.63-0.99-6.42-2.96-8.38c-1.97-1.96-4.81-2.94-8.5-2.94h-28.64V1184.79z"/>
		<path class="st4" d="M796.77,1144.24v-14.62h21.39c0.74,2.28,1.3,4.59,1.68,6.94s0.57,5.08,0.57,8.18
			c0,6.51-1.98,11.58-5.94,15.21c-3.96,3.63-9.51,5.44-16.65,5.44c-4.57,0-8.58-0.9-12.02-2.69c-3.44-1.79-6.07-4.38-7.88-7.75
			c-1.82-3.37-2.72-7.33-2.72-11.86c0-4.59,0.86-8.87,2.59-12.83l4.51,1.94c-1.68,3.88-2.53,7.62-2.53,11.21
			c0,5.24,1.59,9.33,4.78,12.27s7.61,4.41,13.27,4.41c5.94,0,10.44-1.42,13.51-4.25c3.07-2.83,4.6-7,4.6-12.49
			c0-2.98-0.35-5.89-1.05-8.74h-13.54v9.62H796.77z"/>
		<path class="st4" d="M775.83,1076.57h28.46c5.01,0,8.95,1.48,11.82,4.44c2.87,2.96,4.3,7.03,4.3,12.21
			c0,5.18-1.44,9.18-4.33,12.02c-2.89,2.83-6.86,4.25-11.91,4.25h-28.34v-5h28.7c3.67,0,6.49-0.98,8.45-2.94
			c1.96-1.96,2.95-4.84,2.95-8.65c0-3.63-0.99-6.42-2.96-8.38c-1.97-1.96-4.81-2.94-8.5-2.94h-28.64V1076.57z"/>
		<path class="st4" d="M808.11,1030.66c3.87,0,6.89,1.37,9.05,4.12s3.25,6.47,3.25,11.18c0,5.1-0.67,9.02-2.02,11.77h-4.93
			c0.76-1.77,1.36-3.69,1.8-5.77s0.66-4.14,0.66-6.18c0-3.33-0.65-5.84-1.94-7.53c-1.29-1.69-3.09-2.53-5.4-2.53
			c-1.52,0-2.77,0.3-3.75,0.9c-0.97,0.6-1.87,1.6-2.69,3s-1.75,3.54-2.8,6.4c-1.46,4-3.2,6.86-5.2,8.58c-2,1.72-4.62,2.57-7.85,2.57
			c-3.39,0-6.09-1.25-8.09-3.74c-2-2.49-3.01-5.79-3.01-9.89c0-4.28,0.8-8.21,2.41-11.8l4.45,1.56c-1.52,3.55-2.29,7-2.29,10.36
			c0,2.65,0.58,4.72,1.75,6.21c1.16,1.49,2.78,2.24,4.84,2.24c1.52,0,2.77-0.27,3.75-0.82s1.87-1.48,2.68-2.78
			c0.81-1.3,1.71-3.3,2.69-5.99c1.64-4.51,3.41-7.62,5.29-9.31C802.65,1031.51,805.1,1030.66,808.11,1030.66z"/>
		<path class="st4" d="M819.81,998.38v5h-39.44v13.62h-4.54v-32.25h4.54v13.62H819.81z"/>
		<path class="st4" d="M816.62,969.49c-1.34,0-2.36-0.3-3.05-0.9c-0.69-0.6-1.04-1.46-1.04-2.57c0-1.14,0.35-2.03,1.04-2.66
			c0.69-0.64,1.71-0.96,3.05-0.96c1.3,0,2.31,0.32,3.01,0.97c0.7,0.65,1.05,1.53,1.05,2.65c0,1-0.32,1.83-0.95,2.49
			C819.1,969.16,818.06,969.49,816.62,969.49z"/>
		<path class="st4" d="M819.81,890.57v28.27h-4.3l-11.64-11.33c-3.57-3.45-6.12-5.73-7.64-6.83c-1.52-1.1-3.01-1.92-4.45-2.47
			c-1.44-0.55-3-0.82-4.66-0.82c-2.35,0-4.21,0.7-5.58,2.09c-1.37,1.39-2.06,3.33-2.06,5.8c0,1.78,0.3,3.48,0.9,5.08
			s1.7,3.38,3.28,5.34l-3.4,2.59c-3.37-3.96-5.05-8.28-5.05-12.95c0-4.04,1.06-7.21,3.17-9.5c2.12-2.29,4.96-3.44,8.53-3.44
			c2.79,0,5.55,0.76,8.27,2.29c2.73,1.53,6.18,4.39,10.35,8.59l9.42,9.42h0.24v-22.12H819.81z"/>
		<path class="st4" d="M786.18,847.49c2.81,0,5.1,0.77,6.89,2.31s2.98,3.72,3.58,6.55h0.24c0.44-3.45,1.56-6.01,3.37-7.68
			s4.17-2.5,7.1-2.5c4.19,0,7.42,1.42,9.67,4.27c2.26,2.84,3.38,6.88,3.38,12.12c0,2.28-0.18,4.36-0.53,6.25
			c-0.35,1.89-0.97,3.73-1.85,5.52h-4.75c0.94-1.86,1.66-3.85,2.15-5.96c0.49-2.11,0.74-4.1,0.74-5.99c0-7.43-2.98-11.15-8.93-11.15
			c-5.33,0-8,4.1-8,12.3v4.24h-4.3v-4.3c0-3.35-0.76-6.01-2.27-7.97c-1.51-1.96-3.61-2.94-6.3-2.94c-2.15,0-3.83,0.72-5.05,2.16
			c-1.22,1.44-1.83,3.4-1.83,5.87c0,1.88,0.26,3.66,0.78,5.33s1.48,3.57,2.89,5.71l-3.37,2.47c-1.42-1.77-2.54-3.8-3.35-6.1
			c-0.81-2.3-1.22-4.73-1.22-7.28c0-4.18,0.98-7.42,2.93-9.74S782.77,847.49,786.18,847.49z"/>
		<path class="st4" d="M812.65,822.1l0.69-0.44c2.01,0.51,4.34,1.25,6.99,2.21s5.13,1.96,7.42,3v3.68
			c-2.09-0.53-4.66-1.11-7.73-1.75c-3.07-0.64-5.53-1.08-7.37-1.34V822.1z"/>
		<path class="st4" d="M819.81,750.27v28.27h-4.3l-11.64-11.33c-3.57-3.45-6.12-5.73-7.64-6.83c-1.52-1.1-3.01-1.92-4.45-2.47
			c-1.44-0.55-3-0.82-4.66-0.82c-2.35,0-4.21,0.7-5.58,2.09c-1.37,1.39-2.06,3.32-2.06,5.8c0,1.79,0.3,3.48,0.9,5.08
			c0.6,1.6,1.7,3.38,3.28,5.34l-3.4,2.59c-3.37-3.96-5.05-8.28-5.05-12.95c0-4.04,1.06-7.21,3.17-9.5c2.12-2.29,4.96-3.44,8.53-3.44
			c2.79,0,5.55,0.76,8.27,2.29c2.73,1.53,6.18,4.39,10.35,8.59l9.42,9.41h0.24v-22.12H819.81z"/>
		<path class="st4" d="M797.76,705.34c7.6,0,13.28,1.17,17.03,3.52c3.75,2.34,5.62,5.93,5.62,10.75c0,4.63-1.92,8.15-5.76,10.56
			c-3.84,2.41-9.47,3.62-16.89,3.62c-7.66,0-13.35-1.17-17.06-3.5c-3.71-2.33-5.57-5.89-5.57-10.68c0-4.67,1.94-8.21,5.81-10.64
			C784.81,706.55,790.42,705.34,797.76,705.34z M797.76,728.85c6.4,0,11.05-0.74,13.97-2.21s4.38-3.81,4.38-7.03
			c0-3.26-1.48-5.61-4.44-7.08c-2.96-1.46-7.6-2.19-13.91-2.19c-6.32,0-10.94,0.73-13.88,2.19c-2.94,1.46-4.41,3.82-4.41,7.08
			c0,3.22,1.45,5.56,4.35,7.03C786.71,728.11,791.36,728.85,797.76,728.85z"/>
		<path class="st4" d="M819.81,660.88v28.27h-4.3l-11.64-11.33c-3.57-3.45-6.12-5.73-7.64-6.83c-1.52-1.1-3.01-1.92-4.45-2.47
			c-1.44-0.55-3-0.82-4.66-0.82c-2.35,0-4.21,0.7-5.58,2.09c-1.37,1.39-2.06,3.32-2.06,5.8c0,1.79,0.3,3.48,0.9,5.08
			c0.6,1.6,1.7,3.38,3.28,5.34l-3.4,2.59c-3.37-3.96-5.05-8.28-5.05-12.95c0-4.04,1.06-7.21,3.17-9.5c2.12-2.29,4.96-3.44,8.53-3.44
			c2.79,0,5.55,0.76,8.27,2.29c2.73,1.53,6.18,4.39,10.35,8.59l9.42,9.41h0.24v-22.12H819.81z"/>
		<path class="st4" d="M797.76,615.95c7.6,0,13.28,1.17,17.03,3.52c3.75,2.34,5.62,5.93,5.62,10.75c0,4.63-1.92,8.15-5.76,10.56
			c-3.84,2.41-9.47,3.62-16.89,3.62c-7.66,0-13.35-1.17-17.06-3.5c-3.71-2.33-5.57-5.89-5.57-10.68c0-4.67,1.94-8.21,5.81-10.64
			C784.81,617.16,790.42,615.95,797.76,615.95z M797.76,639.46c6.4,0,11.05-0.74,13.97-2.21s4.38-3.81,4.38-7.03
			c0-3.26-1.48-5.61-4.44-7.08c-2.96-1.46-7.6-2.19-13.91-2.19c-6.32,0-10.94,0.73-13.88,2.19c-2.94,1.46-4.41,3.82-4.41,7.08
			c0,3.22,1.45,5.56,4.35,7.03C786.71,638.72,791.36,639.46,797.76,639.46z"/>
	</g>
</g>
</svg>
